#N canvas 7 39 1501 897 12;
#X declare -path Local_externals;
#X obj 42 115 tgl 19 0 empty empty empty 0 -10 0 12 #fcfcfc #000000 #000000 0 1;
#X obj 42 145 metro 500;
#X obj 40 171 bng 19 250 50 0 empty empty empty 0 -10 0 12 #fcfcfc #000000 #000000;
#X obj 39 198 random 8;
#X obj 38 225 sel 0 1 2 3 4 5 6 7, f 123;
#X obj 39 258 bng 19 250 50 0 empty empty empty 0 -10 0 12 #fcfcfc #000000 #000000;
#X obj 93 258 bng 19 250 50 0 empty empty empty 0 -10 0 12 #fcfcfc #000000 #000000;
#X obj 153 263 bng 19 250 50 0 empty empty empty 0 -10 0 12 #fcfcfc #000000 #000000;
#X obj 283 261 bng 19 250 50 0 empty empty empty 0 -10 0 12 #fcfcfc #000000 #000000;
#X obj 422 261 bng 19 250 50 0 empty empty empty 0 -10 0 12 #fcfcfc #000000 #000000;
#X obj 523 257 bng 19 250 50 0 empty empty empty 0 -10 0 12 #fcfcfc #000000 #000000;
#X obj 640 260 bng 19 250 50 0 empty empty empty 0 -10 0 12 #fcfcfc #000000 #000000;
#X obj 755 262 bng 19 250 50 0 empty empty empty 0 -10 0 12 #fcfcfc #000000 #000000;
#X msg 42 353 220;
#X msg 92 352 440;
#X obj 448 6 tgl 19 0 empty empty empty 0 -10 0 12 #fcfcfc #000000 #000000 0 1;
#X msg 448 46 \; pd dsp \$1;
#X text 28 22 The Pd ssr440 name stands for semitone_select_root_440;
#X obj 536 30 declare -path Local_externals;
#X text 534 1 This is a library of my own;
#X obj 144 577 phasor~;
#X obj 147 605 *~;
#X obj 140 737 dac~;
#X obj 317 592 vline~;
#X msg 315 553 0 \, 0.4 100 \, 0.4 \, 0 600;
#X obj 219 623 print inside Basic_Sequencer patch;
#X obj 155 496 + 440;
#X obj 815 431 ssr440;
#X obj 819 510 ssr440;
#X obj 877 449 s;
#X obj 882 531 s;
#X obj 810 338 ssr440;
#X obj 809 286 hradio 19 1 1 12 empty empty Semitone\ Select\,\ 1\ -\ 12 0 -10 0 12 #fcfcfc #000000 #000000 6;
#X obj 873 359 s;
#X obj 155 464 r;
#X obj 826 688 ssr440;
#X obj 831 773 ssr440;
#X obj 888 706 s;
#X obj 894 794 s;
#X obj 824 598 ssr440;
#X obj 886 616 s;
#X text 8 45 This patch is a basic 8 step sequencer with a riudimentary volume envelope. Its uses an external patch to create the number for the semitone. See the right side with the horizontal radio buttons.;
#X obj 815 398 hradio 19 1 1 12 empty empty Semitone\ Select\,\ 1\ -\ 12 0 -10 0 12 #fcfcfc #000000 #000000 6;
#X obj 819 488 hradio 19 1 1 12 empty empty Semitone\ Select\,\ 1\ -\ 12 0 -10 0 12 #fcfcfc #000000 #000000 6;
#X text 851 250 12th semitone is octave up;
#X obj 823 570 hradio 19 1 1 12 empty empty Semitone\ Select\,\ 1\ -\ 12 0 -10 0 12 #fcfcfc #000000 #000000 6;
#X obj 826 659 hradio 19 1 1 12 empty empty Semitone\ Select\,\ 1\ -\ 12 0 -10 0 12 #fcfcfc #000000 #000000 6;
#X obj 831 745 hradio 19 1 1 12 empty empty Semitone\ Select\,\ 1\ -\ 12 0 -10 0 12 #fcfcfc #000000 #000000 6;
#X floatatom 265 472 5 0 0 0 - - - 24;
#X obj 1164 89 tgl 19 0 empty empty empty 0 -10 0 12 #fcfcfc #000000 #000000 0 1;
#X obj 1164 119 metro 500;
#X obj 1162 145 bng 19 250 50 0 empty empty empty 0 -10 0 12 #fcfcfc #000000 #000000;
#X obj 1161 172 random 8;
#X obj 1160 199 sel 0 1 2 3 4 5 6 7, f 123;
#X obj 1161 232 bng 19 250 50 0 empty empty empty 0 -10 0 12 #fcfcfc #000000 #000000;
#X obj 1215 232 bng 19 250 50 0 empty empty empty 0 -10 0 12 #fcfcfc #000000 #000000;
#X obj 1275 237 bng 19 250 50 0 empty empty empty 0 -10 0 12 #fcfcfc #000000 #000000;
#X obj 1405 235 bng 19 250 50 0 empty empty empty 0 -10 0 12 #fcfcfc #000000 #000000;
#X obj 1544 235 bng 19 250 50 0 empty empty empty 0 -10 0 12 #fcfcfc #000000 #000000;
#X obj 1645 231 bng 19 250 50 0 empty empty empty 0 -10 0 12 #fcfcfc #000000 #000000;
#X obj 1762 234 bng 19 250 50 0 empty empty empty 0 -10 0 12 #fcfcfc #000000 #000000;
#X obj 1877 236 bng 19 250 50 0 empty empty empty 0 -10 0 12 #fcfcfc #000000 #000000;
#X msg 1164 327 220;
#X msg 1214 326 440;
#X obj 1266 551 phasor~;
#X obj 1269 579 *~;
#X obj 1262 711 dac~;
#X obj 1439 566 vline~;
#X msg 1437 527 0 \, 0.4 100 \, 0.4 \, 0 600;
#X obj 1341 597 print inside Basic_Sequencer patch;
#X obj 1277 470 + 440;
#X obj 1937 405 ssr440;
#X obj 1941 484 ssr440;
#X obj 1999 423 s;
#X obj 2004 505 s;
#X obj 1932 312 ssr440;
#X obj 1931 260 hradio 19 1 1 12 empty empty Semitone\ Select\,\ 1\ -\ 12 0 -10 0 12 #fcfcfc #000000 #000000 0;
#X obj 1995 333 s;
#X obj 1277 438 r;
#X obj 1948 662 ssr440;
#X obj 1953 747 ssr440;
#X obj 2010 680 s;
#X obj 2016 768 s;
#X obj 1946 572 ssr440;
#X obj 2008 590 s;
#X obj 1937 372 hradio 19 1 1 12 empty empty Semitone\ Select\,\ 1\ -\ 12 0 -10 0 12 #fcfcfc #000000 #000000 2;
#X obj 1941 462 hradio 19 1 1 12 empty empty Semitone\ Select\,\ 1\ -\ 12 0 -10 0 12 #fcfcfc #000000 #000000 3;
#X text 1977 219 12th semitone is octave up;
#X obj 1945 544 hradio 19 1 1 12 empty empty Semitone\ Select\,\ 1\ -\ 12 0 -10 0 12 #fcfcfc #000000 #000000 6;
#X obj 1948 633 hradio 19 1 1 12 empty empty Semitone\ Select\,\ 1\ -\ 12 0 -10 0 12 #fcfcfc #000000 #000000 8;
#X obj 1953 719 hradio 19 1 1 12 empty empty Semitone\ Select\,\ 1\ -\ 12 0 -10 0 12 #fcfcfc #000000 #000000 11;
#X floatatom 1387 446 5 0 0 0 - - - 24;
#X text 812 313 1--2--3-4--5--6--7-8--9-10-11-12;
#X text 1934 287 1--2--3-4--5--6--7-8--9-10-11-12;
#X obj 1020 24 bng 19 250 50 0 empty empty empty 0 -10 0 12 #fcfcfc #000000 #000000;
#X obj 789 77 hsl 162 19 0 2000 0 1 empty empty empty -2 -10 0 12 #fcfcfc #000000 #000000 2600 1;
#X floatatom 788 105 5 0 0 0 - - - 0;
#X text 459 138 I really like the sound of the left side semitones set to #7 \, which is the 5th and the right side set to semitones 1 \, (minor 2nd or the 9th above 220) \, 3rd (minor 3rd) \, 4th (Major 3rd) \, 7th (Major 5th) \, 9th (Major 6th) \, and 12th (octave up).;
#X text 881 142 Then get the sides running staggered.;
#X text 881 162 Do this by clicking the [Toggles] at;
#X text 884 183 different times.;
#X text 1230 748;
#X text 244 726 IDEAS: 1) Have this patch made into a module so it can be placed somewhere and have it work. However \, things such as the semitone select would have to be reworked so the horizontal radio buttons could be used in the main patch. 2) The next idea is to be able to change the envelopes. 3) Put in place a slider to allow the staggering of timing of the sides. 4) Make a section of the patch all together to allow easier selection of semitones. 5) Add in a cross fader and LFO to allow the sides to fade in and out at different levels.;
#X connect 0 0 1 0;
#X connect 1 0 2 0;
#X connect 2 0 3 0;
#X connect 3 0 4 0;
#X connect 4 0 5 0;
#X connect 4 1 6 0;
#X connect 4 2 7 0;
#X connect 4 3 8 0;
#X connect 4 4 9 0;
#X connect 4 5 10 0;
#X connect 4 6 11 0;
#X connect 4 7 12 0;
#X connect 5 0 13 0;
#X connect 6 0 14 0;
#X connect 7 0 31 0;
#X connect 8 0 27 0;
#X connect 9 0 28 0;
#X connect 10 0 39 0;
#X connect 11 0 35 0;
#X connect 12 0 36 0;
#X connect 13 0 20 0;
#X connect 13 0 24 0;
#X connect 14 0 20 0;
#X connect 14 0 24 0;
#X connect 15 0 16 0;
#X connect 20 0 21 0;
#X connect 21 0 22 0;
#X connect 21 0 22 1;
#X connect 23 0 21 1;
#X connect 24 0 23 0;
#X connect 26 0 25 0;
#X connect 26 0 24 0;
#X connect 26 0 20 0;
#X connect 27 0 29 0;
#X connect 28 0 30 0;
#X connect 31 0 33 0;
#X connect 32 0 31 0;
#X connect 34 0 26 0;
#X connect 34 0 48 0;
#X connect 35 0 37 0;
#X connect 36 0 38 0;
#X connect 39 0 40 0;
#X connect 42 0 27 0;
#X connect 43 0 28 0;
#X connect 45 0 39 0;
#X connect 46 0 35 0;
#X connect 47 0 36 0;
#X connect 49 0 50 0;
#X connect 50 0 51 0;
#X connect 51 0 52 0;
#X connect 52 0 53 0;
#X connect 53 0 54 0;
#X connect 53 1 55 0;
#X connect 53 2 56 0;
#X connect 53 3 57 0;
#X connect 53 4 58 0;
#X connect 53 5 59 0;
#X connect 53 6 60 0;
#X connect 53 7 61 0;
#X connect 54 0 62 0;
#X connect 55 0 63 0;
#X connect 56 0 75 0;
#X connect 57 0 71 0;
#X connect 58 0 72 0;
#X connect 59 0 83 0;
#X connect 60 0 79 0;
#X connect 61 0 80 0;
#X connect 62 0 64 0;
#X connect 62 0 68 0;
#X connect 63 0 64 0;
#X connect 63 0 68 0;
#X connect 64 0 65 0;
#X connect 65 0 66 1;
#X connect 67 0 65 1;
#X connect 68 0 67 0;
#X connect 70 0 69 0;
#X connect 70 0 68 0;
#X connect 70 0 64 0;
#X connect 71 0 73 0;
#X connect 72 0 74 0;
#X connect 75 0 77 0;
#X connect 76 0 75 0;
#X connect 78 0 70 0;
#X connect 78 0 91 0;
#X connect 79 0 81 0;
#X connect 80 0 82 0;
#X connect 83 0 84 0;
#X connect 85 0 71 0;
#X connect 86 0 72 0;
#X connect 88 0 83 0;
#X connect 89 0 79 0;
#X connect 90 0 80 0;
#X connect 94 0 49 0;
#X connect 94 0 0 0;
#X connect 95 0 96 0;
#X connect 95 0 50 1;
#X connect 95 0 1 1;
