#N canvas 324 214 1142 665 12;
#X obj 98 468 /;
#X obj 100 567 print;
#X msg 251 190 12;
#X obj 104 518 *;
#X msg 158 210 440;
#X obj 141 74 loadbang;
#X msg 247 131 0 15;
#X obj 245 159 line;
#X msg 178 133 0 20;
#X obj 181 160 line;
#X obj 550 228 hradio 19 1 0 12 empty empty empty 0 -10 0 12 #fcfcfc #000000 #000000 0;
#X obj 637 259 hradio 19 1 1 2 empty empty empty 0 -10 0 12 #fcfcfc #000000 #000000 1;
#X obj 553 286 +;
#X obj 464 51 inlet;
#X obj 175 576 outlet;
#X obj 571 371 bng 19 250 50 0 empty empty empty 0 -10 0 12 #fcfcfc #000000 #000000;
#X obj 598 339 line;
#X msg 612 307 0 1;
#X floatatom 167 544 5 0 0 0 - - - 0;
#X connect 0 0 3 0;
#X connect 2 0 0 1;
#X connect 3 0 1 0;
#X connect 3 0 18 0;
#X connect 4 0 0 0;
#X connect 5 0 6 0;
#X connect 5 0 8 0;
#X connect 6 0 7 0;
#X connect 7 0 2 0;
#X connect 8 0 9 0;
#X connect 9 0 4 0;
#X connect 10 0 12 0;
#X connect 10 0 17 0;
#X connect 11 0 12 1;
#X connect 12 0 3 1;
#X connect 13 0 10 0;
#X connect 15 0 4 0;
#X connect 16 0 15 0;
#X connect 17 0 16 0;
#X connect 18 0 14 0;
